<mxfile host="app.diagrams.net" modified="2021-09-28T00:29:53.444Z" agent="5.0 (Windows NT 10.0; Win64; x64) AppleWebKit/537.36 (KHTML, like Gecko) Chrome/93.0.4577.82 Safari/537.36" etag="cdSJrmnt821ja9eb9bBh" version="15.3.4" type="github">
  <diagram id="WU5X_ZVvqC-1iVfxeLAN" name="Page-1">
    <mxGraphModel dx="1108" dy="1560" grid="1" gridSize="10" guides="1" tooltips="1" connect="1" arrows="1" fold="1" page="1" pageScale="1" pageWidth="850" pageHeight="1100" math="0" shadow="0">
      <root>
        <mxCell id="0" />
        <mxCell id="1" parent="0" />
        <mxCell id="pTdvrpAztXlIGn4kWrst-1" style="edgeStyle=orthogonalEdgeStyle;rounded=0;orthogonalLoop=1;jettySize=auto;html=1;entryX=0.5;entryY=0;entryDx=0;entryDy=0;endArrow=open;startSize=14;endSize=14;sourcePerimeterSpacing=8;targetPerimeterSpacing=8;" edge="1" parent="1" source="aXYRldd05nXYK8EtMDga-3" target="aXYRldd05nXYK8EtMDga-6">
          <mxGeometry relative="1" as="geometry" />
        </mxCell>
        <mxCell id="aXYRldd05nXYK8EtMDga-3" value="user inputs: SAT, ACT, GPA, Major/Minor, Location, Budget" style="shape=parallelogram;perimeter=parallelogramPerimeter;whiteSpace=wrap;html=1;fixedSize=1;hachureGap=4;pointerEvents=0;" parent="1" vertex="1">
          <mxGeometry x="330" y="-60" width="220" height="70" as="geometry" />
        </mxCell>
        <mxCell id="aXYRldd05nXYK8EtMDga-5" style="edgeStyle=none;curved=1;rounded=0;orthogonalLoop=1;jettySize=auto;html=1;entryX=0.5;entryY=0;entryDx=0;entryDy=0;endArrow=open;startSize=14;endSize=14;sourcePerimeterSpacing=8;targetPerimeterSpacing=8;" parent="1" source="aXYRldd05nXYK8EtMDga-4" target="aXYRldd05nXYK8EtMDga-3" edge="1">
          <mxGeometry relative="1" as="geometry" />
        </mxCell>
        <mxCell id="aXYRldd05nXYK8EtMDga-4" value="Start" style="ellipse;whiteSpace=wrap;html=1;hachureGap=4;pointerEvents=0;" parent="1" vertex="1">
          <mxGeometry x="380" y="-200" width="120" height="80" as="geometry" />
        </mxCell>
        <mxCell id="pTdvrpAztXlIGn4kWrst-2" style="edgeStyle=orthogonalEdgeStyle;rounded=0;orthogonalLoop=1;jettySize=auto;html=1;entryX=0.5;entryY=0;entryDx=0;entryDy=0;endArrow=open;startSize=14;endSize=14;sourcePerimeterSpacing=8;targetPerimeterSpacing=8;" edge="1" parent="1" source="aXYRldd05nXYK8EtMDga-6" target="aXYRldd05nXYK8EtMDga-7">
          <mxGeometry relative="1" as="geometry" />
        </mxCell>
        <mxCell id="aXYRldd05nXYK8EtMDga-6" value="Rule out colleges that have materially higher average GPA" style="rounded=0;whiteSpace=wrap;html=1;hachureGap=4;pointerEvents=0;" parent="1" vertex="1">
          <mxGeometry x="380" y="40" width="120" height="60" as="geometry" />
        </mxCell>
        <mxCell id="pTdvrpAztXlIGn4kWrst-3" style="edgeStyle=orthogonalEdgeStyle;rounded=0;orthogonalLoop=1;jettySize=auto;html=1;entryX=0.5;entryY=0;entryDx=0;entryDy=0;endArrow=open;startSize=14;endSize=14;sourcePerimeterSpacing=8;targetPerimeterSpacing=8;" edge="1" parent="1" source="aXYRldd05nXYK8EtMDga-7" target="aXYRldd05nXYK8EtMDga-8">
          <mxGeometry relative="1" as="geometry" />
        </mxCell>
        <mxCell id="aXYRldd05nXYK8EtMDga-7" value="Rule out colleges that have materially higher average ACT" style="rounded=0;whiteSpace=wrap;html=1;hachureGap=4;pointerEvents=0;" parent="1" vertex="1">
          <mxGeometry x="380" y="130" width="120" height="60" as="geometry" />
        </mxCell>
        <mxCell id="aXYRldd05nXYK8EtMDga-51" style="edgeStyle=orthogonalEdgeStyle;rounded=0;orthogonalLoop=1;jettySize=auto;html=1;entryX=0;entryY=0.5;entryDx=0;entryDy=0;endArrow=open;startSize=14;endSize=14;sourcePerimeterSpacing=8;targetPerimeterSpacing=8;" parent="1" source="aXYRldd05nXYK8EtMDga-8" target="aXYRldd05nXYK8EtMDga-20" edge="1">
          <mxGeometry relative="1" as="geometry">
            <Array as="points">
              <mxPoint x="430" y="460" />
            </Array>
          </mxGeometry>
        </mxCell>
        <mxCell id="aXYRldd05nXYK8EtMDga-8" value="Rule out colleges that have materially higher average SAT" style="rounded=0;whiteSpace=wrap;html=1;hachureGap=4;pointerEvents=0;" parent="1" vertex="1">
          <mxGeometry x="380" y="230" width="120" height="60" as="geometry" />
        </mxCell>
        <mxCell id="aXYRldd05nXYK8EtMDga-25" style="edgeStyle=orthogonalEdgeStyle;rounded=0;orthogonalLoop=1;jettySize=auto;html=1;entryX=0;entryY=0.5;entryDx=0;entryDy=0;endArrow=open;startSize=14;endSize=14;sourcePerimeterSpacing=8;targetPerimeterSpacing=8;" parent="1" source="aXYRldd05nXYK8EtMDga-9" target="aXYRldd05nXYK8EtMDga-10" edge="1">
          <mxGeometry relative="1" as="geometry">
            <Array as="points">
              <mxPoint x="710" y="530" />
            </Array>
          </mxGeometry>
        </mxCell>
        <mxCell id="aXYRldd05nXYK8EtMDga-33" value="No" style="edgeLabel;html=1;align=center;verticalAlign=middle;resizable=0;points=[];" parent="aXYRldd05nXYK8EtMDga-25" vertex="1" connectable="0">
          <mxGeometry x="0.459" y="-3" relative="1" as="geometry">
            <mxPoint as="offset" />
          </mxGeometry>
        </mxCell>
        <mxCell id="aXYRldd05nXYK8EtMDga-26" style="edgeStyle=orthogonalEdgeStyle;rounded=0;orthogonalLoop=1;jettySize=auto;html=1;entryX=0;entryY=0.5;entryDx=0;entryDy=0;endArrow=open;startSize=14;endSize=14;sourcePerimeterSpacing=8;targetPerimeterSpacing=8;" parent="1" source="aXYRldd05nXYK8EtMDga-9" target="aXYRldd05nXYK8EtMDga-11" edge="1">
          <mxGeometry relative="1" as="geometry">
            <Array as="points">
              <mxPoint x="710" y="390" />
            </Array>
          </mxGeometry>
        </mxCell>
        <mxCell id="aXYRldd05nXYK8EtMDga-32" value="Yes" style="edgeLabel;html=1;align=center;verticalAlign=middle;resizable=0;points=[];" parent="aXYRldd05nXYK8EtMDga-26" vertex="1" connectable="0">
          <mxGeometry x="0.4098" y="2" relative="1" as="geometry">
            <mxPoint as="offset" />
          </mxGeometry>
        </mxCell>
        <mxCell id="aXYRldd05nXYK8EtMDga-9" value="Does college have desired Major" style="rhombus;whiteSpace=wrap;html=1;hachureGap=4;pointerEvents=0;" parent="1" vertex="1">
          <mxGeometry x="660" y="410" width="100" height="100" as="geometry" />
        </mxCell>
        <mxCell id="aXYRldd05nXYK8EtMDga-29" style="edgeStyle=orthogonalEdgeStyle;rounded=0;orthogonalLoop=1;jettySize=auto;html=1;entryX=0.5;entryY=1;entryDx=0;entryDy=0;endArrow=open;startSize=14;endSize=14;sourcePerimeterSpacing=8;targetPerimeterSpacing=8;" parent="1" source="aXYRldd05nXYK8EtMDga-10" target="aXYRldd05nXYK8EtMDga-14" edge="1">
          <mxGeometry relative="1" as="geometry" />
        </mxCell>
        <mxCell id="aXYRldd05nXYK8EtMDga-10" value="get rid of that college and open next college" style="rounded=0;whiteSpace=wrap;html=1;hachureGap=4;pointerEvents=0;" parent="1" vertex="1">
          <mxGeometry x="820" y="500" width="120" height="60" as="geometry" />
        </mxCell>
        <mxCell id="aXYRldd05nXYK8EtMDga-30" style="edgeStyle=orthogonalEdgeStyle;rounded=0;orthogonalLoop=1;jettySize=auto;html=1;entryX=0.5;entryY=0;entryDx=0;entryDy=0;endArrow=open;startSize=14;endSize=14;sourcePerimeterSpacing=8;targetPerimeterSpacing=8;" parent="1" source="aXYRldd05nXYK8EtMDga-11" target="aXYRldd05nXYK8EtMDga-14" edge="1">
          <mxGeometry relative="1" as="geometry" />
        </mxCell>
        <mxCell id="aXYRldd05nXYK8EtMDga-11" value="open next college" style="rounded=0;whiteSpace=wrap;html=1;hachureGap=4;pointerEvents=0;" parent="1" vertex="1">
          <mxGeometry x="820" y="360" width="120" height="60" as="geometry" />
        </mxCell>
        <mxCell id="aXYRldd05nXYK8EtMDga-31" style="edgeStyle=orthogonalEdgeStyle;rounded=0;orthogonalLoop=1;jettySize=auto;html=1;endArrow=open;startSize=14;endSize=14;sourcePerimeterSpacing=8;targetPerimeterSpacing=8;" parent="1" source="aXYRldd05nXYK8EtMDga-14" target="aXYRldd05nXYK8EtMDga-20" edge="1">
          <mxGeometry relative="1" as="geometry">
            <mxPoint x="580" y="420" as="targetPoint" />
            <Array as="points">
              <mxPoint x="1060" y="450" />
              <mxPoint x="1060" y="320" />
              <mxPoint x="550" y="320" />
            </Array>
          </mxGeometry>
        </mxCell>
        <mxCell id="aXYRldd05nXYK8EtMDga-14" value="" style="rhombus;whiteSpace=wrap;html=1;hachureGap=4;pointerEvents=0;" parent="1" vertex="1">
          <mxGeometry x="1010" y="440" width="20" height="20" as="geometry" />
        </mxCell>
        <mxCell id="aXYRldd05nXYK8EtMDga-34" style="edgeStyle=orthogonalEdgeStyle;rounded=0;orthogonalLoop=1;jettySize=auto;html=1;entryX=0;entryY=0.5;entryDx=0;entryDy=0;endArrow=open;startSize=14;endSize=14;sourcePerimeterSpacing=8;targetPerimeterSpacing=8;" parent="1" source="aXYRldd05nXYK8EtMDga-20" target="aXYRldd05nXYK8EtMDga-9" edge="1">
          <mxGeometry relative="1" as="geometry">
            <Array as="points">
              <mxPoint x="640" y="460" />
              <mxPoint x="640" y="460" />
            </Array>
          </mxGeometry>
        </mxCell>
        <mxCell id="aXYRldd05nXYK8EtMDga-35" value="No" style="edgeLabel;html=1;align=center;verticalAlign=middle;resizable=0;points=[];" parent="aXYRldd05nXYK8EtMDga-34" vertex="1" connectable="0">
          <mxGeometry x="0.4685" y="3" relative="1" as="geometry">
            <mxPoint x="-24" y="3" as="offset" />
          </mxGeometry>
        </mxCell>
        <mxCell id="aXYRldd05nXYK8EtMDga-52" style="edgeStyle=orthogonalEdgeStyle;rounded=0;orthogonalLoop=1;jettySize=auto;html=1;entryX=0.5;entryY=0;entryDx=0;entryDy=0;endArrow=open;startSize=14;endSize=14;sourcePerimeterSpacing=8;targetPerimeterSpacing=8;exitX=0.5;exitY=1;exitDx=0;exitDy=0;" parent="1" source="aXYRldd05nXYK8EtMDga-20" target="aXYRldd05nXYK8EtMDga-50" edge="1">
          <mxGeometry relative="1" as="geometry">
            <Array as="points">
              <mxPoint x="550" y="510" />
              <mxPoint x="375" y="510" />
            </Array>
          </mxGeometry>
        </mxCell>
        <mxCell id="aXYRldd05nXYK8EtMDga-20" value="Done with colleges?" style="rhombus;whiteSpace=wrap;html=1;hachureGap=4;pointerEvents=0;" parent="1" vertex="1">
          <mxGeometry x="510" y="420" width="80" height="80" as="geometry" />
        </mxCell>
        <mxCell id="aXYRldd05nXYK8EtMDga-36" style="edgeStyle=orthogonalEdgeStyle;rounded=0;orthogonalLoop=1;jettySize=auto;html=1;entryX=0;entryY=0.5;entryDx=0;entryDy=0;endArrow=open;startSize=14;endSize=14;sourcePerimeterSpacing=8;targetPerimeterSpacing=8;" parent="1" source="aXYRldd05nXYK8EtMDga-40" target="aXYRldd05nXYK8EtMDga-42" edge="1">
          <mxGeometry relative="1" as="geometry">
            <Array as="points">
              <mxPoint x="710" y="810" />
            </Array>
          </mxGeometry>
        </mxCell>
        <mxCell id="aXYRldd05nXYK8EtMDga-37" value="No" style="edgeLabel;html=1;align=center;verticalAlign=middle;resizable=0;points=[];" parent="aXYRldd05nXYK8EtMDga-36" vertex="1" connectable="0">
          <mxGeometry x="0.459" y="-3" relative="1" as="geometry">
            <mxPoint as="offset" />
          </mxGeometry>
        </mxCell>
        <mxCell id="aXYRldd05nXYK8EtMDga-38" style="edgeStyle=orthogonalEdgeStyle;rounded=0;orthogonalLoop=1;jettySize=auto;html=1;entryX=0;entryY=0.5;entryDx=0;entryDy=0;endArrow=open;startSize=14;endSize=14;sourcePerimeterSpacing=8;targetPerimeterSpacing=8;" parent="1" source="aXYRldd05nXYK8EtMDga-40" target="aXYRldd05nXYK8EtMDga-44" edge="1">
          <mxGeometry relative="1" as="geometry">
            <Array as="points">
              <mxPoint x="710" y="670" />
            </Array>
          </mxGeometry>
        </mxCell>
        <mxCell id="aXYRldd05nXYK8EtMDga-39" value="Yes" style="edgeLabel;html=1;align=center;verticalAlign=middle;resizable=0;points=[];" parent="aXYRldd05nXYK8EtMDga-38" vertex="1" connectable="0">
          <mxGeometry x="0.4098" y="2" relative="1" as="geometry">
            <mxPoint as="offset" />
          </mxGeometry>
        </mxCell>
        <mxCell id="aXYRldd05nXYK8EtMDga-40" value="Does college have desired location" style="rhombus;whiteSpace=wrap;html=1;hachureGap=4;pointerEvents=0;" parent="1" vertex="1">
          <mxGeometry x="660" y="690" width="100" height="100" as="geometry" />
        </mxCell>
        <mxCell id="aXYRldd05nXYK8EtMDga-41" style="edgeStyle=orthogonalEdgeStyle;rounded=0;orthogonalLoop=1;jettySize=auto;html=1;entryX=0.5;entryY=1;entryDx=0;entryDy=0;endArrow=open;startSize=14;endSize=14;sourcePerimeterSpacing=8;targetPerimeterSpacing=8;" parent="1" source="aXYRldd05nXYK8EtMDga-42" target="aXYRldd05nXYK8EtMDga-46" edge="1">
          <mxGeometry relative="1" as="geometry" />
        </mxCell>
        <mxCell id="aXYRldd05nXYK8EtMDga-42" value="get rid of that college and open next college" style="rounded=0;whiteSpace=wrap;html=1;hachureGap=4;pointerEvents=0;" parent="1" vertex="1">
          <mxGeometry x="820" y="780" width="120" height="60" as="geometry" />
        </mxCell>
        <mxCell id="aXYRldd05nXYK8EtMDga-43" style="edgeStyle=orthogonalEdgeStyle;rounded=0;orthogonalLoop=1;jettySize=auto;html=1;entryX=0.5;entryY=0;entryDx=0;entryDy=0;endArrow=open;startSize=14;endSize=14;sourcePerimeterSpacing=8;targetPerimeterSpacing=8;" parent="1" source="aXYRldd05nXYK8EtMDga-44" target="aXYRldd05nXYK8EtMDga-46" edge="1">
          <mxGeometry relative="1" as="geometry" />
        </mxCell>
        <mxCell id="aXYRldd05nXYK8EtMDga-44" value="open next college" style="rounded=0;whiteSpace=wrap;html=1;hachureGap=4;pointerEvents=0;" parent="1" vertex="1">
          <mxGeometry x="820" y="640" width="120" height="60" as="geometry" />
        </mxCell>
        <mxCell id="aXYRldd05nXYK8EtMDga-45" style="edgeStyle=orthogonalEdgeStyle;rounded=0;orthogonalLoop=1;jettySize=auto;html=1;endArrow=open;startSize=14;endSize=14;sourcePerimeterSpacing=8;targetPerimeterSpacing=8;" parent="1" source="aXYRldd05nXYK8EtMDga-46" target="aXYRldd05nXYK8EtMDga-49" edge="1">
          <mxGeometry relative="1" as="geometry">
            <mxPoint x="580" y="700" as="targetPoint" />
            <Array as="points">
              <mxPoint x="1060" y="730" />
              <mxPoint x="1060" y="600" />
              <mxPoint x="550" y="600" />
            </Array>
          </mxGeometry>
        </mxCell>
        <mxCell id="aXYRldd05nXYK8EtMDga-46" value="" style="rhombus;whiteSpace=wrap;html=1;hachureGap=4;pointerEvents=0;" parent="1" vertex="1">
          <mxGeometry x="1010" y="720" width="20" height="20" as="geometry" />
        </mxCell>
        <mxCell id="aXYRldd05nXYK8EtMDga-47" style="edgeStyle=orthogonalEdgeStyle;rounded=0;orthogonalLoop=1;jettySize=auto;html=1;entryX=0;entryY=0.5;entryDx=0;entryDy=0;endArrow=open;startSize=14;endSize=14;sourcePerimeterSpacing=8;targetPerimeterSpacing=8;" parent="1" source="aXYRldd05nXYK8EtMDga-49" target="aXYRldd05nXYK8EtMDga-40" edge="1">
          <mxGeometry relative="1" as="geometry">
            <Array as="points">
              <mxPoint x="640" y="740" />
              <mxPoint x="640" y="740" />
            </Array>
          </mxGeometry>
        </mxCell>
        <mxCell id="aXYRldd05nXYK8EtMDga-48" value="No" style="edgeLabel;html=1;align=center;verticalAlign=middle;resizable=0;points=[];" parent="aXYRldd05nXYK8EtMDga-47" vertex="1" connectable="0">
          <mxGeometry x="0.4685" y="3" relative="1" as="geometry">
            <mxPoint x="-24" y="3" as="offset" />
          </mxGeometry>
        </mxCell>
        <mxCell id="aXYRldd05nXYK8EtMDga-69" style="edgeStyle=orthogonalEdgeStyle;rounded=0;orthogonalLoop=1;jettySize=auto;html=1;entryX=0;entryY=0.5;entryDx=0;entryDy=0;endArrow=open;startSize=14;endSize=14;sourcePerimeterSpacing=8;targetPerimeterSpacing=8;" parent="1" source="aXYRldd05nXYK8EtMDga-49" target="aXYRldd05nXYK8EtMDga-68" edge="1">
          <mxGeometry relative="1" as="geometry">
            <Array as="points">
              <mxPoint x="550" y="1040" />
            </Array>
          </mxGeometry>
        </mxCell>
        <mxCell id="aXYRldd05nXYK8EtMDga-70" value="Yes" style="edgeLabel;html=1;align=center;verticalAlign=middle;resizable=0;points=[];" parent="aXYRldd05nXYK8EtMDga-69" vertex="1" connectable="0">
          <mxGeometry x="0.2133" relative="1" as="geometry">
            <mxPoint y="-167" as="offset" />
          </mxGeometry>
        </mxCell>
        <mxCell id="aXYRldd05nXYK8EtMDga-49" value="Done with colleges?" style="rhombus;whiteSpace=wrap;html=1;hachureGap=4;pointerEvents=0;" parent="1" vertex="1">
          <mxGeometry x="510" y="700" width="80" height="80" as="geometry" />
        </mxCell>
        <mxCell id="aXYRldd05nXYK8EtMDga-53" style="edgeStyle=orthogonalEdgeStyle;rounded=0;orthogonalLoop=1;jettySize=auto;html=1;entryX=0;entryY=0.5;entryDx=0;entryDy=0;endArrow=open;startSize=14;endSize=14;sourcePerimeterSpacing=8;targetPerimeterSpacing=8;" parent="1" source="aXYRldd05nXYK8EtMDga-50" target="aXYRldd05nXYK8EtMDga-49" edge="1">
          <mxGeometry relative="1" as="geometry">
            <Array as="points">
              <mxPoint x="460" y="740" />
              <mxPoint x="460" y="740" />
            </Array>
          </mxGeometry>
        </mxCell>
        <mxCell id="aXYRldd05nXYK8EtMDga-54" value="Yes" style="edgeLabel;html=1;align=center;verticalAlign=middle;resizable=0;points=[];" parent="aXYRldd05nXYK8EtMDga-53" vertex="1" connectable="0">
          <mxGeometry x="-0.5272" relative="1" as="geometry">
            <mxPoint as="offset" />
          </mxGeometry>
        </mxCell>
        <mxCell id="aXYRldd05nXYK8EtMDga-50" value="Does the location matter for the user" style="rhombus;whiteSpace=wrap;html=1;hachureGap=4;pointerEvents=0;" parent="1" vertex="1">
          <mxGeometry x="320" y="690" width="110" height="100" as="geometry" />
        </mxCell>
        <mxCell id="aXYRldd05nXYK8EtMDga-55" style="edgeStyle=orthogonalEdgeStyle;rounded=0;orthogonalLoop=1;jettySize=auto;html=1;entryX=0;entryY=0.5;entryDx=0;entryDy=0;endArrow=open;startSize=14;endSize=14;sourcePerimeterSpacing=8;targetPerimeterSpacing=8;" parent="1" source="aXYRldd05nXYK8EtMDga-59" target="aXYRldd05nXYK8EtMDga-61" edge="1">
          <mxGeometry relative="1" as="geometry">
            <Array as="points">
              <mxPoint x="810" y="1110" />
            </Array>
          </mxGeometry>
        </mxCell>
        <mxCell id="aXYRldd05nXYK8EtMDga-56" value="No" style="edgeLabel;html=1;align=center;verticalAlign=middle;resizable=0;points=[];" parent="aXYRldd05nXYK8EtMDga-55" vertex="1" connectable="0">
          <mxGeometry x="0.459" y="-3" relative="1" as="geometry">
            <mxPoint as="offset" />
          </mxGeometry>
        </mxCell>
        <mxCell id="aXYRldd05nXYK8EtMDga-57" style="edgeStyle=orthogonalEdgeStyle;rounded=0;orthogonalLoop=1;jettySize=auto;html=1;entryX=0;entryY=0.5;entryDx=0;entryDy=0;endArrow=open;startSize=14;endSize=14;sourcePerimeterSpacing=8;targetPerimeterSpacing=8;" parent="1" source="aXYRldd05nXYK8EtMDga-59" target="aXYRldd05nXYK8EtMDga-63" edge="1">
          <mxGeometry relative="1" as="geometry">
            <Array as="points">
              <mxPoint x="810" y="970" />
            </Array>
          </mxGeometry>
        </mxCell>
        <mxCell id="aXYRldd05nXYK8EtMDga-58" value="Yes" style="edgeLabel;html=1;align=center;verticalAlign=middle;resizable=0;points=[];" parent="aXYRldd05nXYK8EtMDga-57" vertex="1" connectable="0">
          <mxGeometry x="0.4098" y="2" relative="1" as="geometry">
            <mxPoint as="offset" />
          </mxGeometry>
        </mxCell>
        <mxCell id="aXYRldd05nXYK8EtMDga-59" value="Is college tuition materially larger than budget?" style="rhombus;whiteSpace=wrap;html=1;hachureGap=4;pointerEvents=0;" parent="1" vertex="1">
          <mxGeometry x="760" y="990" width="100" height="100" as="geometry" />
        </mxCell>
        <mxCell id="aXYRldd05nXYK8EtMDga-60" style="edgeStyle=orthogonalEdgeStyle;rounded=0;orthogonalLoop=1;jettySize=auto;html=1;entryX=0.5;entryY=1;entryDx=0;entryDy=0;endArrow=open;startSize=14;endSize=14;sourcePerimeterSpacing=8;targetPerimeterSpacing=8;" parent="1" source="aXYRldd05nXYK8EtMDga-61" target="aXYRldd05nXYK8EtMDga-65" edge="1">
          <mxGeometry relative="1" as="geometry" />
        </mxCell>
        <mxCell id="aXYRldd05nXYK8EtMDga-61" value="get rid of that college and open next college" style="rounded=0;whiteSpace=wrap;html=1;hachureGap=4;pointerEvents=0;" parent="1" vertex="1">
          <mxGeometry x="920" y="1080" width="120" height="60" as="geometry" />
        </mxCell>
        <mxCell id="aXYRldd05nXYK8EtMDga-62" style="edgeStyle=orthogonalEdgeStyle;rounded=0;orthogonalLoop=1;jettySize=auto;html=1;entryX=0.5;entryY=0;entryDx=0;entryDy=0;endArrow=open;startSize=14;endSize=14;sourcePerimeterSpacing=8;targetPerimeterSpacing=8;" parent="1" source="aXYRldd05nXYK8EtMDga-63" target="aXYRldd05nXYK8EtMDga-65" edge="1">
          <mxGeometry relative="1" as="geometry" />
        </mxCell>
        <mxCell id="aXYRldd05nXYK8EtMDga-63" value="open next college" style="rounded=0;whiteSpace=wrap;html=1;hachureGap=4;pointerEvents=0;" parent="1" vertex="1">
          <mxGeometry x="920" y="940" width="120" height="60" as="geometry" />
        </mxCell>
        <mxCell id="aXYRldd05nXYK8EtMDga-64" style="edgeStyle=orthogonalEdgeStyle;rounded=0;orthogonalLoop=1;jettySize=auto;html=1;endArrow=open;startSize=14;endSize=14;sourcePerimeterSpacing=8;targetPerimeterSpacing=8;" parent="1" source="aXYRldd05nXYK8EtMDga-65" target="aXYRldd05nXYK8EtMDga-68" edge="1">
          <mxGeometry relative="1" as="geometry">
            <mxPoint x="680" y="1000" as="targetPoint" />
            <Array as="points">
              <mxPoint x="1160" y="1030" />
              <mxPoint x="1160" y="900" />
              <mxPoint x="650" y="900" />
            </Array>
          </mxGeometry>
        </mxCell>
        <mxCell id="aXYRldd05nXYK8EtMDga-65" value="" style="rhombus;whiteSpace=wrap;html=1;hachureGap=4;pointerEvents=0;" parent="1" vertex="1">
          <mxGeometry x="1110" y="1020" width="20" height="20" as="geometry" />
        </mxCell>
        <mxCell id="aXYRldd05nXYK8EtMDga-66" style="edgeStyle=orthogonalEdgeStyle;rounded=0;orthogonalLoop=1;jettySize=auto;html=1;entryX=0;entryY=0.5;entryDx=0;entryDy=0;endArrow=open;startSize=14;endSize=14;sourcePerimeterSpacing=8;targetPerimeterSpacing=8;" parent="1" source="aXYRldd05nXYK8EtMDga-68" target="aXYRldd05nXYK8EtMDga-59" edge="1">
          <mxGeometry relative="1" as="geometry">
            <Array as="points">
              <mxPoint x="740" y="1040" />
              <mxPoint x="740" y="1040" />
            </Array>
          </mxGeometry>
        </mxCell>
        <mxCell id="aXYRldd05nXYK8EtMDga-67" value="No" style="edgeLabel;html=1;align=center;verticalAlign=middle;resizable=0;points=[];" parent="aXYRldd05nXYK8EtMDga-66" vertex="1" connectable="0">
          <mxGeometry x="0.4685" y="3" relative="1" as="geometry">
            <mxPoint x="-24" y="3" as="offset" />
          </mxGeometry>
        </mxCell>
        <mxCell id="aXYRldd05nXYK8EtMDga-71" style="edgeStyle=orthogonalEdgeStyle;rounded=0;orthogonalLoop=1;jettySize=auto;html=1;endArrow=open;startSize=14;endSize=14;sourcePerimeterSpacing=8;targetPerimeterSpacing=8;" parent="1" source="aXYRldd05nXYK8EtMDga-68" edge="1">
          <mxGeometry relative="1" as="geometry">
            <mxPoint x="650" y="1210" as="targetPoint" />
          </mxGeometry>
        </mxCell>
        <mxCell id="aXYRldd05nXYK8EtMDga-68" value="Done with colleges?" style="rhombus;whiteSpace=wrap;html=1;hachureGap=4;pointerEvents=0;" parent="1" vertex="1">
          <mxGeometry x="610" y="1000" width="80" height="80" as="geometry" />
        </mxCell>
        <mxCell id="aXYRldd05nXYK8EtMDga-72" value="print remaining colleges" style="shape=parallelogram;perimeter=parallelogramPerimeter;whiteSpace=wrap;html=1;fixedSize=1;hachureGap=4;pointerEvents=0;" parent="1" vertex="1">
          <mxGeometry x="590" y="1210" width="120" height="60" as="geometry" />
        </mxCell>
      </root>
    </mxGraphModel>
  </diagram>
</mxfile>
